<svg id="Layer_1" data-name="Layer 1" xmlns="http://www.w3.org/2000/svg" viewBox="0 0 195.21 147.78"><defs><style>.cls-1{fill:none;stroke:#707070;stroke-linecap:round;stroke-miterlimit:10;stroke-width:1.5px;}.cls-2{fill:#707070;}.cls-3{fill:#fff;}</style></defs><path id="Path_50" data-name="Path 50" class="cls-1" d="M55.86,117.23h70.7a5.58,5.58,0,0,0,5.06-8c-4.7-9.75-16-25-40.41-25s-35.71,15.24-40.41,25a5.58,5.58,0,0,0,2.65,7.43A5.76,5.76,0,0,0,55.86,117.23Z"/><path class="cls-1" d="M112.65,45.45a24.14,24.14,0,0,0-22-14.9C77.31,30.55,66.5,41.94,66.5,56S77.31,81.43,90.66,81.43a23.25,23.25,0,0,0,14.23-4.89"/><path class="cls-1" d="M112.65,45.45h26.77c3.69,0,5.53,1.83,5.53,5.46V72.4c0,3.62-1.84,5.45-5.53,5.45H109a5.73,5.73,0,0,1-4.08-1.31"/><path class="cls-1" d="M112.65,45.45H109c-3.68,0-5.53,1.81-5.53,5.46V72.4a5.44,5.44,0,0,0,1.45,4.14"/><path class="cls-2" d="M108.81,66.57V56.73a2.2,2.2,0,0,1,2.52-2.46h9.73a2.2,2.2,0,0,1,2.52,2.46v9.84A2.2,2.2,0,0,1,121.06,69h-9.73A2.21,2.21,0,0,1,108.81,66.57Z"/><path class="cls-3" d="M121.55,67.38c-.52-1.58-2.51-3.06-5.35-3.06s-4.82,1.48-5.35,3.06Z"/><path class="cls-3" d="M119,60.06a2.77,2.77,0,1,0-2.75,3A2.83,2.83,0,0,0,119,60.06Z"/><path class="cls-2" d="M125.67,61.66a6.85,6.85,0,0,1,7.15-7.23c4.1,0,7,2.66,7,6.49,0,2.8-1.3,4.63-3.27,4.63a2.23,2.23,0,0,1-2-1,2.54,2.54,0,0,1-2.08,1c-1.92,0-3.24-1.57-3.24-3.87s1.32-3.86,3.19-3.86a2.23,2.23,0,0,1,1.83.78v-.14a1,1,0,0,1,.85-.64.9.9,0,0,1,.89.94v4.36c0,.51.2.74.73.74.84,0,1.37-1.09,1.37-2.83,0-2.92-2.1-4.9-5.21-4.9s-5.28,2.26-5.28,5.55,2.11,5.4,5.52,5.4a10.58,10.58,0,0,0,2.15-.28,4.44,4.44,0,0,1,.57-.09.78.78,0,0,1,.77.8,1,1,0,0,1-.77.95,8.52,8.52,0,0,1-2.91.38A6.8,6.8,0,0,1,125.67,61.66Z"/><path class="cls-3" d="M134.24,61.59c0-1.27-.59-2-1.55-2s-1.56.77-1.56,2.09.6,2.13,1.55,2.13S134.24,63,134.24,61.59Z"/></svg>