<svg width="54" height="53" viewBox="0 0 54 53" fill="none" xmlns="http://www.w3.org/2000/svg">
<path d="M0.780273 44.3294V8.63937C0.780273 2.98937 3.69027 0.109375 9.37027 0.109375H44.9203C50.6003 0.109375 53.5103 3.01937 53.5103 8.63937V44.3294C53.5103 49.9194 50.6003 52.8294 44.9203 52.8294H9.37027C3.70027 52.8294 0.780273 49.9494 0.780273 44.3294ZM38.4803 31.7594V16.9694C38.4803 15.6294 37.7503 15.0794 36.5903 15.0794H21.7403C20.6303 15.0794 19.9403 15.7494 19.9403 16.7694C19.9403 17.7894 20.6703 18.4894 21.7703 18.4894H28.8703L33.1803 18.1694L29.1303 21.9794L16.3503 34.7294C16.0003 35.0794 15.7703 35.5194 15.7703 36.0094C15.7703 37.0594 16.4703 37.7294 17.4903 37.7294C18.0703 37.7294 18.5103 37.5294 18.8603 37.2094L31.5803 24.4294L35.3603 20.4394L35.0703 25.3294V31.7894C35.0703 32.9294 35.7703 33.6194 36.7903 33.6194C37.8103 33.6194 38.4803 32.8594 38.4803 31.7594Z" fill="black"/>
</svg>
