<svg width="54" height="53" viewBox="0 0 54 53" fill="none" xmlns="http://www.w3.org/2000/svg">
<path d="M0.959961 44.3294V8.63937C0.959961 2.98937 3.86997 0.109375 9.54996 0.109375H45.1C50.78 0.109375 53.69 3.01937 53.69 8.63937V44.3294C53.69 49.9194 50.78 52.8294 45.1 52.8294H9.54996C3.86997 52.8294 0.959961 49.9494 0.959961 44.3294ZM45.01 49.2194C48.24 49.2194 50.08 47.4994 50.08 44.1294V8.81937C50.08 5.46937 48.25 3.72938 45.01 3.72938H9.60996C6.34996 3.72938 4.56996 5.47937 4.56996 8.81937V44.1294C4.56996 47.5094 6.34996 49.2194 9.60996 49.2194H45.01ZM35.11 31.6994V25.2994L35.4 20.5294L31.73 24.4294L19.15 36.9794C18.83 37.2994 18.42 37.5294 17.87 37.5294C16.85 37.5294 16.18 36.8594 16.18 35.8394C16.18 35.3694 16.41 34.9394 16.73 34.6194L29.34 21.9994L33.27 18.2994L29.05 18.5894H22.03C20.95 18.5894 20.25 17.9194 20.25 16.9294C20.25 15.9394 20.92 15.2994 22 15.2994H36.59C37.73 15.2994 38.42 15.8494 38.42 17.1294V31.6594C38.42 32.7094 37.78 33.4394 36.79 33.4394C35.78 33.4494 35.11 32.7794 35.11 31.6994Z" fill="black"/>
</svg>
