<svg width="73" height="72" viewBox="0 0 73 72" fill="none" xmlns="http://www.w3.org/2000/svg">
<path d="M46 0H27C24.2386 0 22 2.23858 22 5V67C22 69.7614 24.2386 72 27 72H46C48.7614 72 51 69.7614 51 67V5C51 2.23858 48.7614 0 46 0Z" fill="black"/>
<path d="M0.5 26.7168L0.5 45.2598C0.5 48.0212 2.73858 50.2598 5.5 50.2598L67.477 50.2598C70.2384 50.2598 72.477 48.0212 72.477 45.2598V26.7168C72.477 23.9553 70.2384 21.7168 67.477 21.7168L5.5 21.7168C2.73858 21.7168 0.5 23.9553 0.5 26.7168Z" fill="black"/>
</svg>
