<svg width="64" height="64" viewBox="0 0 64 64" fill="none" xmlns="http://www.w3.org/2000/svg">
<path d="M13 0H51C54.4478 0 57.7544 1.39138 60.1924 3.86805C62.6304 6.34472 64 9.70381 64 13.2063V50.7937C64 52.5279 63.6637 54.2452 63.0104 55.8475C62.3571 57.4498 61.3995 58.9056 60.1924 60.132C58.9852 61.3583 57.5521 62.331 55.9749 62.9947C54.3977 63.6584 52.7072 64 51 64H13C9.55219 64 6.24558 62.6086 3.80761 60.132C1.36964 57.6553 0 54.2962 0 50.7937L0 13.2063C0 9.70381 1.36964 6.34472 3.80761 3.86805C6.24558 1.39138 9.55219 0 13 0V0Z" fill="#EDDCC1"/>
<path d="M22.506 28.8121H20.148V26.4126C20.148 26.2009 20.0652 25.9978 19.9178 25.848C19.7704 25.6983 19.5705 25.6142 19.362 25.6142H16.218C16.0095 25.6142 15.8096 25.6983 15.6622 25.848C15.5148 25.9978 15.432 26.2009 15.432 26.4126V28.8081H13.074C12.8655 28.8081 12.6656 28.8922 12.5182 29.0419C12.3708 29.1917 12.288 29.3948 12.288 29.6065V32.8005C12.288 33.0122 12.3708 33.2153 12.5182 33.3651C12.6656 33.5148 12.8655 33.5989 13.074 33.5989H15.432V35.9944C15.432 36.2061 15.5148 36.4092 15.6622 36.559C15.8096 36.7087 16.0095 36.7928 16.218 36.7928H19.362C19.5705 36.7928 19.7704 36.7087 19.9178 36.559C20.0652 36.4092 20.148 36.2061 20.148 35.9944V33.603H22.506C22.7145 33.603 22.9144 33.5189 23.0618 33.3691C23.2092 33.2194 23.292 33.0163 23.292 32.8045V29.6106C23.292 29.3988 23.2092 29.1957 23.0618 29.046C22.9144 28.8963 22.7145 28.8121 22.506 28.8121V28.8121ZM21.72 32.006H18.576V35.1999H17V32.006H13.86V30.4091H17V27.2152H18.572V30.4091H21.72V32.006ZM49.231 26.4126H42.157C41.9485 26.4126 41.7486 26.4968 41.6012 26.6465C41.4538 26.7963 41.371 26.9993 41.371 27.2111V35.1959C41.371 35.4076 41.4538 35.6107 41.6012 35.7605C41.7486 35.9102 41.9485 35.9944 42.157 35.9944H53.947C54.086 35.9943 54.2226 35.9568 54.3427 35.8857C54.4628 35.8145 54.5622 35.7123 54.6307 35.5894C54.6992 35.4665 54.7344 35.3273 54.7327 35.1861C54.731 35.0449 54.6925 34.9066 54.621 34.7855L49.9 26.8048C49.8314 26.6862 49.7337 26.5878 49.6164 26.5191C49.4992 26.4503 49.3664 26.4137 49.231 26.4126ZM42.943 34.3974V28.0137H48.786L52.56 34.4015L42.943 34.3974ZM57.761 34.7784L51.473 24.4022C51.4028 24.2858 51.3043 24.1896 51.187 24.1229C51.0697 24.0562 50.9374 24.0212 50.803 24.0213H39.803V23.2228H46.091C46.7158 23.2209 47.3144 22.9675 47.7556 22.5182C48.1968 22.0688 48.4447 21.46 48.445 20.8253V17.6335C48.4442 16.9984 48.1955 16.3896 47.7535 15.9405C47.3114 15.4915 46.7121 15.2388 46.087 15.238H8.358C7.73286 15.2388 7.13356 15.4915 6.69152 15.9405C6.24948 16.3896 6.00079 16.9984 6 17.6335V46.3827C6 46.5944 6.08281 46.7975 6.23021 46.9473C6.37762 47.097 6.57754 47.1812 6.786 47.1812H12.351C12.5392 48.5102 13.1927 49.7259 14.1917 50.6052C15.1907 51.4844 16.4682 51.9685 17.79 51.9685C19.1118 51.9685 20.3893 51.4844 21.3883 50.6052C22.3873 49.7259 23.0408 48.5102 23.229 47.1812H40.648C40.8362 48.5102 41.4897 49.7259 42.4887 50.6052C43.4877 51.4844 44.7652 51.9685 46.087 51.9685C47.4088 51.9685 48.6863 51.4844 49.6853 50.6052C50.6843 49.7259 51.3378 48.5102 51.526 47.1812H57.091C57.2995 47.1812 57.4994 47.097 57.6468 46.9473C57.7942 46.7975 57.877 46.5944 57.877 46.3827V35.2081C57.8774 35.0606 57.8372 34.916 57.761 34.7905V34.7784ZM17.79 50.372C17.0127 50.372 16.2529 50.1379 15.6066 49.6992C14.9603 49.2605 14.4566 48.637 14.1592 47.9074C13.8617 47.1779 13.7839 46.3752 13.9355 45.6008C14.0872 44.8263 14.4614 44.1149 15.0111 43.5566C15.5607 42.9982 16.261 42.618 17.0233 42.464C17.7856 42.3099 18.5758 42.389 19.2939 42.6911C20.0121 42.9933 20.6258 43.505 21.0577 44.1616C21.4895 44.8181 21.72 45.59 21.72 46.3796C21.7187 47.4381 21.3042 48.4528 20.5675 49.2012C19.8307 49.9496 18.8319 50.3707 17.79 50.372V50.372ZM38.227 22.4243V45.5811H23.227C23.0388 44.2521 22.3853 43.0364 21.3863 42.1571C20.3873 41.2779 19.1098 40.7938 17.788 40.7938C16.4662 40.7938 15.1887 41.2779 14.1897 42.1571C13.1907 43.0364 12.5372 44.2521 12.349 45.5811H7.572V17.6335C7.57226 17.4218 7.65516 17.2188 7.80251 17.0692C7.94985 16.9195 8.14962 16.8353 8.358 16.835H46.087C46.2954 16.8353 46.4951 16.9195 46.6425 17.0692C46.7898 17.2188 46.8727 17.4218 46.873 17.6335V20.8253C46.8727 21.037 46.7898 21.24 46.6425 21.3897C46.4951 21.5393 46.2954 21.6235 46.087 21.6238H39.013C38.8045 21.6238 38.6046 21.7079 38.4572 21.8577C38.3098 22.0074 38.227 22.2105 38.227 22.4223V22.4243ZM46.087 50.37C45.3097 50.37 44.5499 50.1358 43.9036 49.6971C43.2573 49.2585 42.7536 48.6349 42.4562 47.9054C42.1587 47.1759 42.0809 46.3732 42.2325 45.5987C42.3842 44.8243 42.7585 44.1129 43.3081 43.5546C43.8577 42.9962 44.5579 42.616 45.3203 42.4619C46.0826 42.3079 46.8728 42.3869 47.5909 42.6891C48.3091 42.9913 48.9228 43.503 49.3547 44.1595C49.7865 44.8161 50.017 45.588 50.017 46.3776C50.0157 47.436 49.6012 48.4507 48.8645 49.1992C48.1277 49.9476 47.1289 50.3686 46.087 50.37V50.37ZM56.3 45.5811H51.526C51.3378 44.2521 50.6843 43.0364 49.6853 42.1571C48.6863 41.2779 47.4088 40.7938 46.087 40.7938C44.7652 40.7938 43.4877 41.2779 42.4887 42.1571C41.4897 43.0364 40.8362 44.2521 40.648 45.5811H39.8V25.6182H50.363L56.3 35.4265V45.5811Z" fill="#F8F8F8"/>
</svg>
