<svg width="64" height="64" viewBox="0 0 64 64" fill="none" xmlns="http://www.w3.org/2000/svg">
<path d="M13 0H51C54.4478 0 57.7544 1.39138 60.1924 3.86805C62.6304 6.34472 64 9.70381 64 13.2064V50.7937C64 52.5279 63.6637 54.2452 63.0104 55.8475C62.3571 57.4498 61.3995 58.9056 60.1924 60.132C58.9852 61.3583 57.5521 62.331 55.9749 62.9947C54.3977 63.6584 52.7072 64 51 64H13C9.55219 64 6.24558 62.6086 3.80761 60.132C1.36964 57.6553 0 54.2962 0 50.7937L0 13.2064C0 9.70381 1.36964 6.34472 3.80761 3.86805C6.24558 1.39138 9.55219 0 13 0V0Z" fill="#EFD8D8"/>
<path d="M49.666 24.7498L46.666 19.4723C46.6312 19.4103 46.5848 19.3558 46.5293 19.312C46.4737 19.2682 46.4103 19.2359 46.3425 19.2171C46.2747 19.1982 46.2039 19.1931 46.1341 19.202C46.0644 19.211 45.9971 19.2338 45.936 19.2692L36.456 24.83C36.3747 24.8771 36.2827 24.9017 36.1891 24.9014C36.0955 24.901 36.0036 24.8758 35.9226 24.828C35.8416 24.7803 35.7744 24.7119 35.7276 24.6295C35.6808 24.5472 35.6562 24.4538 35.656 24.3587V13.242C35.6559 13.1705 35.6419 13.0997 35.6148 13.0337C35.5878 12.9677 35.5482 12.9077 35.4983 12.8573C35.4485 12.8068 35.3893 12.7668 35.3242 12.7395C35.2591 12.7123 35.1894 12.6984 35.119 12.6985H29.119C28.977 12.6985 28.8409 12.7557 28.7404 12.8576C28.6399 12.9595 28.5833 13.0977 28.583 13.242V24.3617C28.5829 24.4568 28.5582 24.5502 28.5114 24.6326C28.4646 24.7149 28.3974 24.7834 28.3164 24.8311C28.2355 24.8788 28.1436 24.9041 28.05 24.9044C27.9564 24.9048 27.8643 24.8802 27.783 24.8331L18.3 19.2722C18.239 19.2368 18.1716 19.214 18.1019 19.2051C18.0322 19.1961 17.9614 19.2012 17.8936 19.2201C17.8258 19.239 17.7623 19.2712 17.7068 19.315C17.6513 19.3588 17.6048 19.4133 17.57 19.4754L14.57 24.7528C14.5351 24.8148 14.5125 24.8832 14.5036 24.9541C14.4948 25.025 14.4998 25.0969 14.5184 25.1658C14.5369 25.2348 14.5687 25.2992 14.6119 25.3556C14.6551 25.412 14.7088 25.4592 14.77 25.4944L24.25 31.0553C24.3312 31.1032 24.3985 31.1719 24.4454 31.2545C24.4922 31.3372 24.5168 31.4308 24.5168 31.5262C24.5168 31.6215 24.4922 31.7152 24.4454 31.7978C24.3985 31.8804 24.3312 31.9491 24.25 31.997L14.768 37.5538C14.7068 37.5891 14.6531 37.6362 14.6099 37.6926C14.5667 37.749 14.5349 37.8135 14.5164 37.8824C14.4978 37.9513 14.4928 38.0233 14.5016 38.0942C14.5105 38.165 14.5331 38.2334 14.568 38.2954L17.568 43.578C17.6027 43.6401 17.6491 43.6947 17.7046 43.7386C17.7602 43.7825 17.8236 43.8148 17.8915 43.8336C17.9593 43.8525 18.0301 43.8576 18.0999 43.8486C18.1697 43.8396 18.237 43.8167 18.298 43.7812L27.778 38.2213C27.8592 38.1739 27.9512 38.149 28.0449 38.1492C28.1385 38.1493 28.2305 38.1745 28.3115 38.2221C28.3926 38.2698 28.4598 38.3383 28.5066 38.4207C28.5534 38.5031 28.578 38.5965 28.578 38.6916V49.8032C28.5783 49.9475 28.6349 50.0857 28.7354 50.1876C28.8359 50.2895 28.972 50.3467 29.114 50.3467H35.114C35.2558 50.3465 35.3918 50.2891 35.492 50.1873C35.5923 50.0854 35.6488 49.9473 35.649 49.8032V38.6835C35.6493 38.5885 35.6742 38.4952 35.721 38.413C35.7679 38.3308 35.8351 38.2625 35.916 38.2149C35.997 38.1673 36.0888 38.1421 36.1823 38.1418C36.2758 38.1415 36.3678 38.1661 36.449 38.2132L45.929 43.773C45.9901 43.8085 46.0574 43.8315 46.1271 43.8405C46.1969 43.8495 46.2678 43.8444 46.3356 43.8255C46.4034 43.8066 46.4669 43.7743 46.5224 43.7305C46.5779 43.6866 46.6243 43.632 46.659 43.5698L49.659 38.2873C49.694 38.2253 49.7166 38.1569 49.7254 38.086C49.7343 38.0152 49.7293 37.9432 49.7107 37.8743C49.6921 37.8054 49.6603 37.7409 49.6171 37.6845C49.5739 37.6281 49.5202 37.581 49.459 37.5457L39.98 31.9859C39.8986 31.9382 39.831 31.8696 39.784 31.7869C39.737 31.7042 39.7122 31.6105 39.7122 31.515C39.7122 31.4195 39.737 31.3257 39.784 31.2431C39.831 31.1604 39.8986 31.0918 39.98 31.0441L49.459 25.4832C49.5816 25.4133 49.6722 25.2971 49.7109 25.1597C49.7497 25.0224 49.7335 24.8751 49.666 24.7498V24.7498Z" stroke="#F8F8F8" stroke-width="1.5" stroke-miterlimit="10"/>
</svg>
