<svg width="64" height="64" viewBox="0 0 64 64" fill="none" xmlns="http://www.w3.org/2000/svg">
<path d="M13 0H51C54.4478 0 57.7544 1.39138 60.1924 3.86805C62.6304 6.34472 64 9.70381 64 13.2063V50.7937C64 52.5279 63.6637 54.2452 63.0104 55.8475C62.3571 57.4498 61.3995 58.9056 60.1924 60.132C58.9852 61.3583 57.5521 62.331 55.9749 62.9947C54.3977 63.6584 52.7072 64 51 64H13C9.55219 64 6.24558 62.6086 3.80761 60.132C1.36964 57.6553 0 54.2962 0 50.7937L0 13.2063C0 9.70381 1.36964 6.34472 3.80761 3.86805C6.24558 1.39138 9.55219 0 13 0V0Z" fill="#CFEACA"/>
<path d="M12.165 44.8528C12.165 45.532 12.3633 46.1958 12.7347 46.7605C13.1061 47.3251 13.634 47.7652 14.2516 48.0251C14.8692 48.285 15.5488 48.353 16.2044 48.2205C16.8601 48.088 17.4624 47.761 17.9351 47.2808C18.4078 46.8006 18.7297 46.1888 18.8601 45.5227C18.9905 44.8566 18.9236 44.1663 18.6678 43.5388C18.4119 42.9114 17.9787 42.3752 17.4229 41.9979C16.867 41.6206 16.2135 41.4192 15.545 41.4192C14.6486 41.4192 13.7889 41.7809 13.155 42.4249C12.5211 43.0688 12.165 43.9422 12.165 44.8528V44.8528Z" stroke="#F8F8F8" stroke-width="1.5" stroke-miterlimit="10"/>
<path d="M45.962 44.8528C45.962 45.532 46.1603 46.1958 46.5317 46.7605C46.9031 47.3251 47.431 47.7652 48.0486 48.0251C48.6662 48.285 49.3458 48.353 50.0014 48.2205C50.6571 48.088 51.2594 47.761 51.7321 47.2808C52.2048 46.8006 52.5267 46.1888 52.6571 45.5227C52.7875 44.8566 52.7206 44.1663 52.4648 43.5388C52.2089 42.9114 51.7757 42.3752 51.2199 41.9979C50.664 41.6206 50.0105 41.4192 49.342 41.4192C48.4456 41.4192 47.5859 41.7809 46.952 42.4249C46.3181 43.0688 45.962 43.9422 45.962 44.8528Z" stroke="#F8F8F8" stroke-width="1.5" stroke-miterlimit="10"/>
<path d="M56.102 23.1081H43.708V21.9632C43.708 21.0525 43.3519 20.1792 42.718 19.5352C42.0842 18.8913 41.2244 18.5295 40.328 18.5295H24.557C23.6606 18.5295 22.8009 18.8913 22.167 19.5352C21.5331 20.1792 21.177 21.0525 21.177 21.9632V23.1081H8.78502C8.63707 23.1079 8.49054 23.1374 8.35381 23.1949C8.21708 23.2523 8.09284 23.3365 7.98817 23.4428C7.88351 23.549 7.80048 23.6751 7.74383 23.814C7.68718 23.9528 7.65802 24.1017 7.65802 24.252V28.8305C7.65789 28.9809 7.68695 29.1298 7.74354 29.2688C7.80013 29.4077 7.88314 29.534 7.98782 29.6404C8.0925 29.7467 8.21679 29.831 8.35358 29.8885C8.49037 29.946 8.63698 29.9755 8.78502 29.9754H15.385L28.45 33.8804L10.72 39.1772C10.698 39.1833 10.684 39.2005 10.663 39.2076C10.5905 39.2366 10.5214 39.2738 10.457 39.3184C10.397 39.352 10.3401 39.3911 10.287 39.4352C10.2368 39.4864 10.1912 39.5421 10.151 39.6018C10.1055 39.6581 10.0653 39.7186 10.031 39.7826C10.0043 39.8483 9.98355 39.9163 9.96902 39.9858C9.94582 40.0611 9.93073 40.1388 9.92402 40.2174C9.92402 40.2398 9.91102 40.2591 9.91102 40.2814C9.91725 40.3353 9.92762 40.3886 9.94202 40.4409C9.94266 40.4957 9.94734 40.5504 9.95602 40.6045C9.96202 40.6258 9.97902 40.641 9.98602 40.6624C10.0147 40.7355 10.0509 40.8053 10.094 40.8706C10.1274 40.9318 10.1659 40.9899 10.209 41.0443C10.2594 41.0947 10.314 41.1405 10.372 41.1815C10.4274 41.2277 10.487 41.2686 10.55 41.3034C10.613 41.3301 10.6783 41.3508 10.745 41.3654C10.8195 41.3896 10.8962 41.4056 10.974 41.4131C10.995 41.4131 11.014 41.4253 11.036 41.4253H53.848C53.871 41.4253 53.889 41.4141 53.911 41.4131C53.9888 41.4055 54.0656 41.3895 54.14 41.3654C54.2067 41.3508 54.272 41.3301 54.335 41.3034C54.3979 41.2683 54.4574 41.2275 54.513 41.1815C54.5718 41.1406 54.6267 41.0944 54.677 41.0433C54.7202 40.9893 54.7587 40.9315 54.792 40.8706C54.8353 40.805 54.8715 40.7348 54.9 40.6614C54.907 40.64 54.923 40.6248 54.93 40.6034C54.939 40.5494 54.944 40.4947 54.945 40.4399C54.959 40.3875 54.9694 40.3342 54.976 40.2804C54.976 40.258 54.965 40.2387 54.963 40.2164C54.9424 40.0696 54.9062 39.9255 54.855 39.7867C54.8212 39.7227 54.781 39.6625 54.735 39.6069C54.6955 39.5464 54.65 39.4902 54.599 39.4393C54.546 39.3951 54.4891 39.356 54.429 39.3224C54.3641 39.2781 54.2947 39.241 54.222 39.2117C54.202 39.2046 54.187 39.1883 54.165 39.1812L36.435 33.8804L49.508 29.9754H56.108C56.4069 29.9754 56.6936 29.8548 56.9049 29.6401C57.1163 29.4253 57.235 29.1341 57.235 28.8305V24.252C57.2349 24.1012 57.2054 23.9519 57.1484 23.8127C57.0913 23.6735 57.0077 23.5472 56.9025 23.4409C56.7972 23.3346 56.6723 23.2505 56.5349 23.1934C56.3976 23.1363 56.2504 23.1073 56.102 23.1081V23.1081ZM23.43 21.9632C23.4296 21.8126 23.4585 21.6635 23.515 21.5243C23.5714 21.3851 23.6544 21.2586 23.7591 21.152C23.8638 21.0455 23.9882 20.961 24.1251 20.9033C24.262 20.8457 24.4088 20.8161 24.557 20.8163H40.329C40.4771 20.8161 40.6237 20.8457 40.7605 20.9031C40.8973 20.9606 41.0215 21.045 41.1262 21.1513C41.2309 21.2576 41.3139 21.3839 41.3705 21.5229C41.4271 21.6618 41.4562 21.8108 41.456 21.9612V23.1081H23.43V21.9632ZM46.03 39.1314H18.861L32.443 35.074L46.03 39.1314ZM32.443 32.6867L23.367 29.9754H41.519L32.443 32.6867Z" stroke="#F8F8F8" stroke-width="1.5" stroke-miterlimit="10"/>
</svg>
