<svg width="31" height="31" viewBox="0 0 31 31" fill="none" xmlns="http://www.w3.org/2000/svg">
<path d="M30.2061 11.4273V3.05327C30.2061 1.54498 28.9833 0.322266 27.4751 0.322266L24.5501 0.322266C23.0418 0.322266 21.8191 1.54498 21.8191 3.05327V11.4273C21.8191 12.9356 23.0418 14.1583 24.5501 14.1583H27.4751C28.9833 14.1583 30.2061 12.9356 30.2061 11.4273Z" fill="#A1E09E"/>
<path d="M18.8569 11.4273V3.05327C18.8569 1.54498 17.6342 0.322266 16.1259 0.322266L3.03793 0.322266C1.52964 0.322266 0.306934 1.54498 0.306934 3.05327V11.4273C0.306934 12.9356 1.52964 14.1583 3.03793 14.1583L16.1259 14.1583C17.6342 14.1583 18.8569 12.9356 18.8569 11.4273Z" fill="#A1E09E"/>
<path d="M30.2061 28.105V19.731C30.2061 18.2227 28.9833 17 27.4751 17H3.03705C1.52876 17 0.306055 18.2227 0.306055 19.731V28.105C0.306055 29.6133 1.52876 30.836 3.03705 30.836H27.4751C28.9833 30.836 30.2061 29.6133 30.2061 28.105Z" fill="#A1E09E"/>
</svg>
