<svg width="22" height="23" viewBox="0 0 22 23" fill="none" xmlns="http://www.w3.org/2000/svg">
<path d="M17.689 1.45312H3.973C2.33106 1.45312 1 2.78418 1 4.42613V19.0261C1 20.6681 2.33106 21.9991 3.973 21.9991H17.689C19.3309 21.9991 20.662 20.6681 20.662 19.0261V4.42613C20.662 2.78418 19.3309 1.45312 17.689 1.45312Z" stroke="black" stroke-miterlimit="10"/>
<path d="M14.4021 10.438C14.4021 9.92204 14.3671 9.43804 14.4131 8.96304C14.4491 8.59104 14.7431 8.43904 15.1061 8.43804C15.6541 8.43804 16.2061 8.43804 16.7691 8.43804V5.84603C15.7402 5.7949 14.7092 5.80225 13.6811 5.86804C12.9373 5.95829 12.2581 6.33503 11.7877 6.91821C11.3173 7.50138 11.0929 8.24499 11.1621 8.99102C11.1521 9.45102 11.1621 9.91102 11.1621 10.413H9.66211V13.496H11.1511V21.996H14.2921V13.503H16.5471L16.8311 10.436L14.4021 10.438Z" fill="black"/>
</svg>
