<svg width="22" height="23" viewBox="0 0 22 23" fill="none" xmlns="http://www.w3.org/2000/svg">
<path d="M13.826 6.23047H7.83496C6.45425 6.23047 5.33496 7.34976 5.33496 8.73047V14.7215C5.33496 16.1022 6.45425 17.2215 7.83496 17.2215H13.826C15.2067 17.2215 16.326 16.1022 16.326 14.7215V8.73047C16.326 7.34976 15.2067 6.23047 13.826 6.23047Z" stroke="black" stroke-miterlimit="10"/>
<path d="M10.8302 14.3107C12.2589 14.3107 13.4172 13.1525 13.4172 11.7237C13.4172 10.295 12.2589 9.13672 10.8302 9.13672C9.4014 9.13672 8.24316 10.295 8.24316 11.7237C8.24316 13.1525 9.4014 14.3107 10.8302 14.3107Z" stroke="black" stroke-miterlimit="10"/>
<path d="M14.265 8.79562C14.4114 8.79562 14.53 8.67698 14.53 8.53062C14.53 8.38427 14.4114 8.26562 14.265 8.26562C14.1186 8.26562 14 8.38427 14 8.53062C14 8.67698 14.1186 8.79562 14.265 8.79562Z" stroke="black" stroke-miterlimit="10"/>
<path d="M17.689 1.45312H3.973C2.33106 1.45312 1 2.78418 1 4.42613V19.0261C1 20.6681 2.33106 21.9991 3.973 21.9991H17.689C19.3309 21.9991 20.662 20.6681 20.662 19.0261V4.42613C20.662 2.78418 19.3309 1.45312 17.689 1.45312Z" stroke="black" stroke-miterlimit="10"/>
</svg>
