<svg width="168" height="73" viewBox="0 0 168 73" fill="none" xmlns="http://www.w3.org/2000/svg">
<path d="M6.69824 23.4238V34H3.13574V6.98438H13.0996C16.056 6.98438 18.3691 7.73893 20.0391 9.24805C21.7214 10.7572 22.5625 12.7549 22.5625 15.2412C22.5625 17.8636 21.7399 19.8861 20.0947 21.3086C18.4619 22.7188 16.1178 23.4238 13.0625 23.4238H6.69824ZM6.69824 20.5107H13.0996C15.0046 20.5107 16.4642 20.0654 17.4785 19.1748C18.4928 18.2718 19 16.973 19 15.2783C19 13.6702 18.4928 12.3838 17.4785 11.4189C16.4642 10.4541 15.0726 9.95312 13.3037 9.91602H6.69824V20.5107ZM30.6895 31.0869H43.4922V34H27.1084V6.98438H30.6895V31.0869ZM62.8447 26.9492H51.5264L48.9844 34H45.3105L55.627 6.98438H58.7441L69.0791 34H65.4238L62.8447 26.9492ZM52.6025 24.0176H61.7871L57.1855 11.3818L52.6025 24.0176ZM93.4785 34H89.8975L76.2969 13.1816V34H72.7158V6.98438H76.2969L89.9346 27.8955V6.98438H93.4785V34ZM117.915 9.91602H109.231V34H105.688V9.91602H97.0225V6.98438H117.915V9.91602ZM135.356 26.9492H124.038L121.496 34H117.822L128.139 6.98438H131.256L141.591 34H137.936L135.356 26.9492ZM125.114 24.0176H134.299L129.697 11.3818L125.114 24.0176ZM136.358 0.341797C136.358 1.67773 135.975 2.76009 135.208 3.58887C134.453 4.41764 133.507 4.83203 132.369 4.83203C131.862 4.83203 131.423 4.77018 131.052 4.64648C130.681 4.52279 130.192 4.26921 129.586 3.88574C128.992 3.50228 128.559 3.27344 128.287 3.19922C128.027 3.11263 127.724 3.06934 127.378 3.06934C126.871 3.06934 126.438 3.26725 126.079 3.66309C125.72 4.04655 125.541 4.54134 125.541 5.14746L123.24 5.01758C123.24 3.69401 123.611 2.59928 124.354 1.7334C125.108 0.867513 126.061 0.43457 127.211 0.43457C127.644 0.43457 128.034 0.496419 128.38 0.620117C128.726 0.743815 129.196 0.985026 129.79 1.34375C130.384 1.70247 130.835 1.9375 131.145 2.04883C131.466 2.16016 131.819 2.21582 132.202 2.21582C132.734 2.21582 133.173 2.00553 133.52 1.58496C133.878 1.16439 134.058 0.675781 134.058 0.119141L136.358 0.341797ZM165.786 21.3643C165.786 24.0114 165.341 26.3245 164.45 28.3037C163.56 30.2705 162.298 31.7734 160.665 32.8125C159.032 33.8516 157.127 34.3711 154.95 34.3711C152.823 34.3711 150.936 33.8516 149.291 32.8125C147.646 31.7611 146.366 30.2705 145.45 28.3408C144.547 26.3988 144.083 24.1536 144.059 21.6055V19.6572C144.059 17.0596 144.51 14.765 145.413 12.7734C146.316 10.7819 147.59 9.26042 149.235 8.20898C150.893 7.14518 152.785 6.61328 154.913 6.61328C157.078 6.61328 158.983 7.139 160.628 8.19043C162.285 9.22949 163.56 10.7448 164.45 12.7363C165.341 14.7155 165.786 17.0225 165.786 19.6572V21.3643ZM162.242 19.6201C162.242 16.4163 161.599 13.9609 160.312 12.2539C159.026 10.5345 157.226 9.6748 154.913 9.6748C152.662 9.6748 150.887 10.5345 149.588 12.2539C148.301 13.9609 147.64 16.3359 147.603 19.3789V21.3643C147.603 24.4691 148.252 26.9121 149.551 28.6934C150.862 30.4622 152.662 31.3467 154.95 31.3467C157.251 31.3467 159.032 30.5117 160.294 28.8418C161.556 27.1595 162.205 24.7536 162.242 21.624V19.6201ZM18.0537 60.9492H6.73535L4.19336 68H0.519531L10.8359 40.9844H13.9531L24.2881 68H20.6328L18.0537 60.9492ZM7.81152 58.0176H16.9961L12.3945 45.3818L7.81152 58.0176ZM48.335 55.3643C48.335 57.9743 47.9206 60.2256 47.0918 62.1182C46.263 63.9984 45.1003 65.4704 43.6035 66.5342L48.4277 70.3193L45.9971 72.5645L40.3008 68.0371C39.4102 68.2598 38.4701 68.3711 37.4805 68.3711C35.3529 68.3711 33.4665 67.8516 31.8213 66.8125C30.1761 65.7611 28.8958 64.2705 27.9805 62.3408C27.0775 60.3988 26.6136 58.1536 26.5889 55.6055V53.6572C26.5889 51.0596 27.0404 48.765 27.9434 46.7734C28.8464 44.7819 30.1204 43.2604 31.7656 42.209C33.4232 41.1452 35.3158 40.6133 37.4434 40.6133C39.6204 40.6133 41.5316 41.139 43.1768 42.1904C44.8343 43.2419 46.1084 44.7572 46.999 46.7363C47.8896 48.7031 48.335 51.0039 48.335 53.6387V55.3643ZM44.7725 53.6201C44.7725 50.4411 44.1354 47.9919 42.8613 46.2725C41.5996 44.5407 39.7936 43.6748 37.4434 43.6748C35.2044 43.6748 33.4355 44.5345 32.1367 46.2539C30.8503 47.9609 30.1885 50.3359 30.1514 53.3789V55.3643C30.1514 58.4567 30.7946 60.8936 32.0811 62.6748C33.3799 64.4561 35.1797 65.3467 37.4805 65.3467C39.7812 65.3467 41.5625 64.5117 42.8242 62.8418C44.0859 61.1595 44.7354 58.7536 44.7725 55.624V53.6201ZM72.8457 40.9844V59.3535C72.8333 61.9017 72.0293 63.986 70.4336 65.6064C68.8503 67.2269 66.6979 68.1361 63.9766 68.334L63.0303 68.3711C60.0739 68.3711 57.7174 67.5732 55.9609 65.9775C54.2044 64.3818 53.3138 62.1862 53.2891 59.3906V40.9844H56.8145V59.2793C56.8145 61.2337 57.3525 62.7552 58.4287 63.8438C59.5049 64.9199 61.0387 65.458 63.0303 65.458C65.0465 65.458 66.5866 64.9199 67.6504 63.8438C68.7266 62.7676 69.2646 61.2523 69.2646 59.2979V40.9844H72.8457ZM82.29 68H78.7275V40.9844H82.29V68Z" fill="#256C14"/>
<path d="M88.8 41.5H144.566V68.076H88.8V41.5Z" fill="#256C14"/>
</svg>
