<svg width="247" height="32" viewBox="0 0 247 32" fill="none" xmlns="http://www.w3.org/2000/svg">
<g opacity="0.488">
<path opacity="0.488" d="M48.5469 1.03711H59.6739C65.5389 1.03711 69.5999 4.9741 69.5999 10.8371V10.8781C69.5999 16.7211 65.5379 20.7211 59.6739 20.7211H53.1889V30.9361H48.5469V1.03711ZM53.1889 4.95312V16.8261H58.5139C62.5539 16.8261 64.8759 14.6491 64.8759 10.8991V10.8581C64.8759 7.12809 62.5549 4.95209 58.5139 4.95209L53.1889 4.95312Z" fill="black"/>
<path opacity="0.488" d="M71.873 1.03711H76.3481V30.9371H71.873V1.03711Z" fill="black"/>
<path opacity="0.488" d="M78.6621 24.7407V24.6976C78.6621 20.9066 81.6051 18.5856 86.7621 18.2756L92.6871 17.9227V16.2856C92.6871 13.8856 91.1331 12.4316 88.3561 12.4316C85.7661 12.4316 84.1711 13.6537 83.7971 15.3947L83.7561 15.5817H79.5321L79.5531 15.3536C79.8651 11.6016 83.1181 8.72266 88.4841 8.72266C93.8091 8.72266 97.1841 11.5407 97.1841 15.9127V30.9347H92.6841V27.4957H92.6021C91.9407 28.6779 90.9712 29.6587 89.7966 30.3336C88.6221 31.0086 87.2866 31.3525 85.9321 31.3287C81.5841 31.3287 78.6621 28.6567 78.6621 24.7407ZM87.1621 27.7407C90.3121 27.7407 92.6941 25.6067 92.6941 22.7687V21.0687L87.3691 21.3997C84.6751 21.5657 83.1841 22.7466 83.1841 24.5906V24.6317C83.1801 26.5437 84.7551 27.7447 87.1581 27.7447L87.1621 27.7407Z" fill="black"/>
<path opacity="0.488" d="M100.099 9.13751H104.574V12.4375H104.674C105.813 10.2195 108.052 8.72852 111.346 8.72852C116.133 8.72852 118.889 11.8155 118.889 16.8285V30.9385H114.389V17.6745C114.389 14.4015 112.855 12.5575 109.747 12.5575C106.597 12.5575 104.567 14.8365 104.567 18.2335V30.9335H100.092L100.099 9.13751Z" fill="black"/>
<path opacity="0.488" d="M123.05 25.1961V12.6961H119.922V9.1311H123.05V3.45312H127.63V9.1311H131.712V12.6961H127.63V24.9211C127.63 27.1391 128.624 27.8011 130.511 27.8011C130.912 27.7993 131.313 27.772 131.711 27.7191V31.1791C130.957 31.2991 130.195 31.3615 129.432 31.3661C125.124 31.3711 123.05 29.5471 123.05 25.1961Z" fill="black"/>
<path opacity="0.488" d="M132.949 24.7406V24.7016C132.949 20.9106 135.892 18.5896 141.049 18.2786L146.974 17.9256V16.2886C146.974 13.8886 145.42 12.4346 142.643 12.4346C140.053 12.4346 138.458 13.6566 138.086 15.3976L138.044 15.5846H133.818L133.838 15.3566C134.15 11.6046 137.403 8.72559 142.769 8.72559C148.094 8.72559 151.469 11.5436 151.469 15.9156V30.9376H146.969V27.4996H146.887C146.226 28.682 145.256 29.6628 144.081 30.3376C142.906 31.0125 141.57 31.356 140.215 31.3316C135.871 31.3286 132.949 28.6556 132.949 24.7406ZM142.833 5.59357L142.024 4.95258C141.533 4.43121 140.886 4.08255 140.18 3.95856C139.373 3.95856 138.999 4.76557 138.999 6.48657V6.65259H136.181V6.38159C136.181 2.65259 137.528 0.808594 139.704 0.808594C140.76 0.813443 141.777 1.20474 142.563 1.90857L143.37 2.53058C143.887 3.06334 144.564 3.41245 145.297 3.5246C146.106 3.5246 146.478 2.71758 146.478 0.996582V0.830566H149.296V1.09955C149.296 4.80855 147.97 6.67358 145.774 6.67358C144.697 6.66938 143.656 6.28674 142.833 5.59259V5.59357ZM141.445 27.7446C144.595 27.7446 146.977 25.6106 146.977 22.7726V21.0726L141.652 21.4036C138.958 21.5696 137.467 22.7506 137.467 24.5946V24.6356C137.467 26.5426 139.042 27.7436 141.445 27.7436V27.7446Z" fill="black"/>
<path opacity="0.488" d="M153.414 20.0377V19.9966C153.414 13.0346 157.537 8.72461 163.732 8.72461C169.948 8.72461 174.092 13.0126 174.092 19.9966V20.0377C174.092 27.0617 169.992 31.3726 163.752 31.3726C157.5 31.3726 153.414 27.0417 153.414 20.0377ZM169.514 20.0377V19.9966C169.514 15.2306 167.235 12.4746 163.733 12.4746C160.293 12.4746 157.993 15.2306 157.993 19.9966V20.0377C157.993 24.8657 160.272 27.6216 163.774 27.6216C167.276 27.6216 169.513 24.8457 169.513 20.0377H169.514Z" fill="black"/>
<path opacity="0.488" d="M177.733 0.857422H195.533V3.42743H180.548V14.6574H194.306V17.1854H180.548V30.7564H177.73L177.733 0.857422Z" fill="black"/>
<path opacity="0.488" d="M197.002 24.7899V24.7499C197.002 21.0819 199.779 18.8659 204.732 18.5339L211.445 18.1189V16.2499C211.445 13.1429 209.476 11.2559 206.12 11.2559C202.992 11.2559 200.94 12.7689 200.484 15.2139L200.443 15.4209H197.79L197.811 15.1729C198.226 11.4639 201.292 8.81085 206.161 8.81085C211.092 8.81085 214.181 11.5869 214.181 16.0009V30.7539H211.445V26.8169H211.363C210.693 28.146 209.66 29.2581 208.383 30.0245C207.107 30.791 205.64 31.1805 204.152 31.1479C199.904 31.1499 197.002 28.6039 197.002 24.7899ZM204.71 28.7499C208.481 28.7499 211.444 26.0969 211.444 22.6569V20.2749L205.063 20.7099C201.685 20.9169 199.799 22.3879 199.799 24.7509V24.7919C199.799 27.1499 201.789 28.7499 204.71 28.7499ZM204.648 6.80688L208.17 0.630859H211.092L206.845 6.80688H204.648Z" fill="black"/>
<path opacity="0.488" d="M216.287 19.9634V19.9434C216.287 13.1664 220.162 8.81641 226.067 8.81641C231.08 8.81641 234.335 12.0694 234.873 15.7784L234.894 15.9655H232.2L232.158 15.7994C231.839 14.4472 231.053 13.2507 229.939 12.4205C228.825 11.5903 227.454 11.1795 226.067 11.2604C221.861 11.2604 219.105 14.6384 219.105 19.9844V20.0054C219.105 25.4334 221.905 28.7054 226.087 28.7054C227.472 28.7894 228.842 28.3795 229.954 27.5486C231.066 26.7178 231.846 25.5197 232.158 24.1674L232.2 24.0004H234.913L234.893 24.1674C234.25 28.1864 230.793 31.1494 226.086 31.1494C220.099 31.1564 216.287 26.8224 216.287 19.9634Z" fill="black"/>
<path opacity="0.488" d="M236.69 3.49045C236.692 3.13277 236.799 2.78368 236.999 2.48709C237.199 2.19051 237.482 1.95971 237.813 1.8237C238.144 1.68769 238.508 1.65256 238.858 1.72275C239.209 1.79294 239.531 1.96532 239.784 2.21817C240.037 2.47102 240.21 2.79302 240.28 3.14371C240.351 3.4944 240.316 3.85811 240.18 4.189C240.044 4.51988 239.813 4.80318 239.517 5.00327C239.22 5.20336 238.871 5.31127 238.514 5.31345C238.273 5.31667 238.035 5.27177 237.812 5.18131C237.589 5.09085 237.387 4.95669 237.217 4.78678C237.047 4.61686 236.913 4.41463 236.822 4.19199C236.732 3.96935 236.687 3.73079 236.69 3.49045ZM237.126 9.20944H239.882V30.7605H237.126V9.20944Z" fill="black"/>
<path opacity="0.488" d="M243.582 0.857422H246.317V30.7574H243.582V0.857422Z" fill="black"/>
<path opacity="0.488" d="M11.7847 0.630859H3.41069C1.9024 0.630859 0.679688 1.85357 0.679688 3.36186V6.28686C0.679688 7.79515 1.9024 9.01786 3.41069 9.01786H11.7847C13.293 9.01786 14.5157 7.79515 14.5157 6.28686V3.36186C14.5157 1.85357 13.293 0.630859 11.7847 0.630859Z" fill="#707070"/>
<path opacity="0.488" d="M11.7847 11.9805H3.41069C1.9024 11.9805 0.679688 13.2032 0.679688 14.7115V27.7995C0.679688 29.3078 1.9024 30.5305 3.41069 30.5305H11.7847C13.293 30.5305 14.5157 29.3078 14.5157 27.7995V14.7115C14.5157 13.2032 13.293 11.9805 11.7847 11.9805Z" fill="#707070"/>
<path opacity="0.488" d="M28.4624 0.630859H20.0884C18.5801 0.630859 17.3574 1.85357 17.3574 3.36186V27.7999C17.3574 29.3081 18.5801 30.5309 20.0884 30.5309H28.4624C29.9707 30.5309 31.1934 29.3081 31.1934 27.7999V3.36186C31.1934 1.85357 29.9707 0.630859 28.4624 0.630859Z" fill="#707070"/>
</g>
</svg>
