<svg width="246" height="32" viewBox="0 0 246 32" fill="none" xmlns="http://www.w3.org/2000/svg">
<path d="M47.8682 1.03516H58.9952C64.8602 1.03516 68.9212 4.97214 68.9212 10.8351V10.8762C68.9212 16.7192 64.8592 20.7192 58.9952 20.7192H52.5102V30.9341H47.8682V1.03516ZM52.5102 4.95117V16.8242H57.8352C61.8752 16.8242 64.1972 14.6472 64.1972 10.8972V10.8561C64.1972 7.12614 61.8762 4.95013 57.8352 4.95013L52.5102 4.95117Z" fill="black"/>
<path d="M71.1934 1.03516H75.6684V30.9352H71.1934V1.03516Z" fill="black"/>
<path d="M77.9814 24.7368V24.6937C77.9814 20.9027 80.9244 18.5818 86.0814 18.2718L92.0064 17.9187V16.2818C92.0064 13.8818 90.4524 12.4277 87.6754 12.4277C85.0854 12.4277 83.4904 13.6497 83.1164 15.3907L83.0754 15.5778H78.8514L78.8724 15.3497C79.1844 11.5977 82.4374 8.71875 87.8034 8.71875C93.1284 8.71875 96.5034 11.5367 96.5034 15.9087V30.9307H92.0034V27.4917H91.9214C91.26 28.6739 90.2905 29.6548 89.116 30.3298C87.9414 31.0047 86.6059 31.3485 85.2514 31.3247C80.9034 31.3247 77.9814 28.6528 77.9814 24.7368ZM86.4814 27.7368C89.6314 27.7368 92.0134 25.6028 92.0134 22.7648V21.0647L86.6884 21.3957C83.9944 21.5617 82.5034 22.7427 82.5034 24.5867V24.6277C82.4994 26.5397 84.0744 27.7407 86.4774 27.7407L86.4814 27.7368Z" fill="black"/>
<path d="M99.4201 9.13556H103.895V12.4355H103.995C105.134 10.2175 107.373 8.72656 110.667 8.72656C115.454 8.72656 118.21 11.8135 118.21 16.8265V30.9366H113.71V17.6725C113.71 14.3995 112.176 12.5555 109.068 12.5555C105.918 12.5555 103.888 14.8346 103.888 18.2316V30.9316H99.4131L99.4201 9.13556Z" fill="black"/>
<path d="M122.371 25.1961V12.6961H119.243V9.1311H122.371V3.45312H126.951V9.1311H131.033V12.6961H126.951V24.9211C126.951 27.1391 127.945 27.8011 129.832 27.8011C130.233 27.7993 130.634 27.772 131.032 27.7191V31.1791C130.278 31.2991 129.516 31.3615 128.753 31.3661C124.445 31.3711 122.371 29.5471 122.371 25.1961Z" fill="black"/>
<path d="M132.269 24.7406V24.7016C132.269 20.9106 135.212 18.5896 140.369 18.2786L146.294 17.9256V16.2886C146.294 13.8886 144.74 12.4346 141.963 12.4346C139.373 12.4346 137.778 13.6566 137.406 15.3976L137.364 15.5846H133.138L133.158 15.3566C133.47 11.6046 136.723 8.72558 142.089 8.72558C147.414 8.72558 150.789 11.5436 150.789 15.9156V30.9376H146.289V27.4996H146.207C145.545 28.682 144.576 29.6629 143.401 30.3377C142.226 31.0125 140.89 31.356 139.535 31.3317C135.191 31.3287 132.269 28.6556 132.269 24.7406ZM142.153 5.59356L141.344 4.95257C140.853 4.43121 140.206 4.08255 139.5 3.95855C138.693 3.95855 138.319 4.76557 138.319 6.48657V6.65258H135.501V6.38159C135.501 2.65259 136.848 0.808594 139.024 0.808594C140.079 0.813443 141.097 1.20474 141.883 1.90857L142.69 2.53058C143.207 3.06333 143.883 3.41244 144.617 3.52459C145.426 3.52459 145.798 2.71758 145.798 0.996582V0.830566H148.616V1.09955C148.616 4.80855 147.29 6.67358 145.094 6.67358C144.017 6.66937 142.976 6.28674 142.153 5.59259V5.59356ZM140.765 27.7446C143.915 27.7446 146.297 25.6106 146.297 22.7726V21.0726L140.972 21.4036C138.278 21.5696 136.787 22.7507 136.787 24.5947V24.6356C136.787 26.5426 138.362 27.7436 140.765 27.7436V27.7446Z" fill="black"/>
<path d="M152.735 20.0357V19.9947C152.735 13.0327 156.858 8.72266 163.053 8.72266C169.269 8.72266 173.413 13.0107 173.413 19.9947V20.0357C173.413 27.0597 169.313 31.3707 163.073 31.3707C156.821 31.3707 152.735 27.0397 152.735 20.0357ZM168.835 20.0357V19.9947C168.835 15.2287 166.556 12.4727 163.054 12.4727C159.614 12.4727 157.314 15.2287 157.314 19.9947V20.0357C157.314 24.8637 159.593 27.6197 163.095 27.6197C166.597 27.6197 168.834 24.8437 168.834 20.0357H168.835Z" fill="black"/>
<path d="M177.053 0.855469H194.853V3.42548H179.868V14.6555H193.626V17.1835H179.868V30.7545H177.05L177.053 0.855469Z" fill="black"/>
<path d="M196.323 24.7879V24.7479C196.323 21.0799 199.1 18.8639 204.053 18.5319L210.766 18.1169V16.2479C210.766 13.1409 208.797 11.2539 205.441 11.2539C202.313 11.2539 200.261 12.7669 199.805 15.2119L199.764 15.4189H197.111L197.132 15.1709C197.547 11.4619 200.613 8.8089 205.482 8.8089C210.413 8.8089 213.502 11.5849 213.502 15.9989V30.752H210.766V26.8149H210.684C210.014 28.144 208.981 29.2561 207.705 30.0226C206.429 30.789 204.961 31.1785 203.473 31.1459C199.225 31.1479 196.323 28.6019 196.323 24.7879ZM204.031 28.7479C207.802 28.7479 210.765 26.0949 210.765 22.6549V20.2729L204.384 20.7079C201.006 20.9149 199.12 22.3859 199.12 24.7489V24.7899C199.12 27.1479 201.11 28.7479 204.031 28.7479ZM203.969 6.80493L207.491 0.628906H210.413L206.166 6.80493H203.969Z" fill="black"/>
<path d="M215.608 19.9595V19.9395C215.608 13.1625 219.483 8.8125 225.388 8.8125C230.401 8.8125 233.656 12.0655 234.194 15.7745L234.215 15.9615H231.521L231.479 15.7955C231.16 14.4432 230.374 13.2468 229.26 12.4166C228.146 11.5864 226.775 11.1756 225.388 11.2565C221.182 11.2565 218.426 14.6345 218.426 19.9805V20.0015C218.426 25.4295 221.226 28.7015 225.408 28.7015C226.793 28.7854 228.163 28.3757 229.275 27.5448C230.386 26.7139 231.167 25.5159 231.479 24.1636L231.521 23.9966H234.234L234.214 24.1636C233.571 28.1826 230.114 31.1455 225.407 31.1455C219.42 31.1525 215.608 26.8186 215.608 19.9595Z" fill="black"/>
<path d="M236.009 3.48655C236.011 3.12887 236.119 2.77978 236.319 2.48319C236.519 2.1866 236.802 1.95581 237.133 1.8198C237.463 1.68379 237.827 1.64865 238.178 1.71885C238.528 1.78904 238.851 1.96142 239.104 2.21427C239.357 2.46712 239.529 2.78912 239.599 3.13981C239.67 3.49049 239.635 3.85421 239.499 4.18509C239.363 4.51598 239.133 4.79927 238.836 4.99936C238.54 5.19946 238.191 5.30737 237.833 5.30955C237.593 5.31277 237.354 5.26786 237.131 5.1774C236.909 5.08694 236.706 4.95279 236.536 4.78287C236.366 4.61296 236.232 4.41072 236.142 4.18809C236.051 3.96545 236.006 3.72689 236.009 3.48655ZM236.445 9.20554H239.201V30.7565H236.445V9.20554Z" fill="black"/>
<path d="M242.903 0.855469H245.638V30.7554H242.903V0.855469Z" fill="black"/>
<path d="M30.2063 11.4293V3.05522C30.2063 1.54693 28.9835 0.324219 27.4753 0.324219H24.5503C23.042 0.324219 21.8193 1.54693 21.8193 3.05522V11.4293C21.8193 12.9376 23.042 14.1603 24.5503 14.1603H27.4753C28.9835 14.1603 30.2063 12.9376 30.2063 11.4293Z" fill="white"/>
<path d="M18.8566 11.4293V3.05522C18.8566 1.54693 17.6339 0.324219 16.1256 0.324219H3.03764C1.52935 0.324219 0.306641 1.54693 0.306641 3.05522V11.4293C0.306641 12.9376 1.52935 14.1603 3.03764 14.1603H16.1256C17.6339 14.1603 18.8566 12.9376 18.8566 11.4293Z" fill="white"/>
<path d="M30.2057 28.105V19.731C30.2057 18.2227 28.9829 17 27.4747 17H3.03666C1.52837 17 0.305664 18.2227 0.305664 19.731V28.105C0.305664 29.6133 1.52837 30.836 3.03666 30.836H27.4747C28.9829 30.836 30.2057 29.6133 30.2057 28.105Z" fill="white"/>
</svg>
