<svg width="246" height="32" viewBox="0 0 246 32" fill="none" xmlns="http://www.w3.org/2000/svg">
<path d="M47.8682 1.03516H58.9952C64.8602 1.03516 68.9212 4.97214 68.9212 10.8351V10.8762C68.9212 16.7192 64.8592 20.7192 58.9952 20.7192H52.5102V30.9341H47.8682V1.03516ZM52.5102 4.95117V16.8242H57.8352C61.8752 16.8242 64.1972 14.6472 64.1972 10.8972V10.8561C64.1972 7.12614 61.8762 4.95013 57.8352 4.95013L52.5102 4.95117Z" fill="black"/>
<path d="M71.1934 1.03516H75.6684V30.9352H71.1934V1.03516Z" fill="black"/>
<path d="M77.9819 24.7387V24.6957C77.9819 20.9047 80.9249 18.5837 86.0819 18.2737L92.0069 17.9207V16.2837C92.0069 13.8837 90.4529 12.4297 87.6759 12.4297C85.0859 12.4297 83.4909 13.6517 83.1169 15.3927L83.0759 15.5797H78.8519L78.8729 15.3517C79.1849 11.5997 82.4379 8.7207 87.8039 8.7207C93.1289 8.7207 96.5039 11.5387 96.5039 15.9107V30.9327H92.0039V27.4937H91.9219C91.2605 28.6759 90.291 29.6567 89.1165 30.3317C87.9419 31.0066 86.6064 31.3505 85.2519 31.3267C80.9039 31.3267 77.9819 28.6547 77.9819 24.7387ZM86.4819 27.7387C89.6319 27.7387 92.0139 25.6047 92.0139 22.7667V21.0667L86.6889 21.3977C83.9949 21.5637 82.5039 22.7447 82.5039 24.5887V24.6297C82.4999 26.5417 84.0749 27.7427 86.4779 27.7427L86.4819 27.7387Z" fill="black"/>
<path d="M99.4201 9.13556H103.895V12.4355H103.995C105.134 10.2175 107.373 8.72656 110.667 8.72656C115.454 8.72656 118.21 11.8135 118.21 16.8265V30.9366H113.71V17.6725C113.71 14.3995 112.176 12.5555 109.068 12.5555C105.918 12.5555 103.888 14.8346 103.888 18.2316V30.9316H99.4131L99.4201 9.13556Z" fill="black"/>
<path d="M122.371 25.1961V12.6961H119.243V9.1311H122.371V3.45312H126.951V9.1311H131.033V12.6961H126.951V24.9211C126.951 27.1391 127.945 27.8011 129.832 27.8011C130.233 27.7993 130.634 27.772 131.032 27.7191V31.1791C130.278 31.2991 129.516 31.3615 128.753 31.3661C124.445 31.3711 122.371 29.5471 122.371 25.1961Z" fill="black"/>
<path d="M132.269 24.7386V24.6996C132.269 20.9086 135.212 18.5876 140.369 18.2766L146.294 17.9236V16.2866C146.294 13.8866 144.74 12.4326 141.963 12.4326C139.373 12.4326 137.778 13.6546 137.406 15.3956L137.364 15.5826H133.138L133.158 15.3546C133.47 11.6026 136.723 8.72363 142.089 8.72363C147.414 8.72363 150.789 11.5416 150.789 15.9136V30.9356H146.289V27.4976H146.207C145.545 28.68 144.576 29.6609 143.401 30.3357C142.226 31.0105 140.89 31.354 139.535 31.3297C135.191 31.3267 132.269 28.6536 132.269 24.7386ZM142.153 5.59161L141.344 4.95062C140.853 4.42926 140.206 4.0806 139.5 3.9566C138.693 3.9566 138.319 4.76362 138.319 6.48462V6.65063H135.501V6.37964C135.501 2.65064 136.848 0.806641 139.024 0.806641C140.079 0.81149 141.097 1.20279 141.883 1.90662L142.69 2.52863C143.207 3.06138 143.883 3.41049 144.617 3.52264C145.426 3.52264 145.798 2.71563 145.798 0.994629V0.828613H148.616V1.0976C148.616 4.8066 147.29 6.67163 145.094 6.67163C144.017 6.66742 142.976 6.28479 142.153 5.59064V5.59161ZM140.765 27.7426C143.915 27.7426 146.297 25.6086 146.297 22.7706V21.0706L140.972 21.4016C138.278 21.5676 136.787 22.7487 136.787 24.5927V24.6336C136.787 26.5406 138.362 27.7416 140.765 27.7416V27.7426Z" fill="black"/>
<path d="M152.735 20.0357V19.9947C152.735 13.0327 156.858 8.72266 163.053 8.72266C169.269 8.72266 173.413 13.0107 173.413 19.9947V20.0357C173.413 27.0597 169.313 31.3707 163.073 31.3707C156.821 31.3707 152.735 27.0397 152.735 20.0357ZM168.835 20.0357V19.9947C168.835 15.2287 166.556 12.4727 163.054 12.4727C159.614 12.4727 157.314 15.2287 157.314 19.9947V20.0357C157.314 24.8637 159.593 27.6197 163.095 27.6197C166.597 27.6197 168.834 24.8437 168.834 20.0357H168.835Z" fill="black"/>
<path d="M177.053 0.855469H194.853V3.42548H179.868V14.6555H193.626V17.1835H179.868V30.7545H177.05L177.053 0.855469Z" fill="black"/>
<path d="M196.323 24.7879V24.7479C196.323 21.0799 199.1 18.8639 204.053 18.5319L210.766 18.1169V16.2479C210.766 13.1409 208.797 11.2539 205.441 11.2539C202.313 11.2539 200.261 12.7669 199.805 15.2119L199.764 15.4189H197.111L197.132 15.1709C197.547 11.4619 200.613 8.8089 205.482 8.8089C210.413 8.8089 213.502 11.5849 213.502 15.9989V30.752H210.766V26.8149H210.684C210.014 28.144 208.981 29.2561 207.705 30.0226C206.429 30.789 204.961 31.1785 203.473 31.1459C199.225 31.1479 196.323 28.6019 196.323 24.7879ZM204.031 28.7479C207.802 28.7479 210.765 26.0949 210.765 22.6549V20.2729L204.384 20.7079C201.006 20.9149 199.12 22.3859 199.12 24.7489V24.7899C199.12 27.1479 201.11 28.7479 204.031 28.7479ZM203.969 6.80493L207.491 0.628906H210.413L206.166 6.80493H203.969Z" fill="black"/>
<path d="M215.608 19.9615V19.9415C215.608 13.1645 219.483 8.81445 225.388 8.81445C230.401 8.81445 233.656 12.0675 234.194 15.7765L234.215 15.9635H231.521L231.479 15.7975C231.16 14.4452 230.374 13.2488 229.26 12.4186C228.146 11.5884 226.775 11.1776 225.388 11.2585C221.182 11.2585 218.426 14.6365 218.426 19.9825V20.0035C218.426 25.4315 221.226 28.7035 225.408 28.7035C226.793 28.7874 228.163 28.3776 229.275 27.5467C230.386 26.7158 231.167 25.5178 231.479 24.1655L231.521 23.9985H234.234L234.214 24.1655C233.571 28.1845 230.114 31.1475 225.407 31.1475C219.42 31.1545 215.608 26.8205 215.608 19.9615Z" fill="black"/>
<path d="M236.009 3.4885C236.011 3.13082 236.119 2.78173 236.319 2.48514C236.519 2.18855 236.802 1.95776 237.133 1.82175C237.463 1.68574 237.827 1.6506 238.178 1.7208C238.528 1.79099 238.851 1.96337 239.104 2.21622C239.357 2.46907 239.529 2.79107 239.599 3.14176C239.67 3.49244 239.635 3.85616 239.499 4.18704C239.363 4.51793 239.133 4.80122 238.836 5.00131C238.54 5.20141 238.191 5.30932 237.833 5.3115C237.593 5.31472 237.354 5.26981 237.131 5.17935C236.909 5.08889 236.706 4.95474 236.536 4.78482C236.366 4.61491 236.232 4.41267 236.142 4.19004C236.051 3.9674 236.006 3.72884 236.009 3.4885ZM236.445 9.20749H239.201V30.7585H236.445V9.20749Z" fill="black"/>
<path d="M242.903 0.855469H245.638V30.7554H242.903V0.855469Z" fill="black"/>
<path d="M30.2061 11.4273V3.05327C30.2061 1.54498 28.9833 0.322266 27.4751 0.322266L24.5501 0.322266C23.0418 0.322266 21.8191 1.54498 21.8191 3.05327V11.4273C21.8191 12.9356 23.0418 14.1583 24.5501 14.1583H27.4751C28.9833 14.1583 30.2061 12.9356 30.2061 11.4273Z" fill="#A1E09E"/>
<path d="M18.8569 11.4273V3.05327C18.8569 1.54498 17.6342 0.322266 16.1259 0.322266L3.03793 0.322266C1.52964 0.322266 0.306934 1.54498 0.306934 3.05327V11.4273C0.306934 12.9356 1.52964 14.1583 3.03793 14.1583L16.1259 14.1583C17.6342 14.1583 18.8569 12.9356 18.8569 11.4273Z" fill="#A1E09E"/>
<path d="M30.2061 28.105V19.731C30.2061 18.2227 28.9833 17 27.4751 17H3.03705C1.52876 17 0.306055 18.2227 0.306055 19.731V28.105C0.306055 29.6133 1.52876 30.836 3.03705 30.836H27.4751C28.9833 30.836 30.2061 29.6133 30.2061 28.105Z" fill="#A1E09E"/>
</svg>
