<svg width="22" height="23" viewBox="0 0 22 23" fill="none" xmlns="http://www.w3.org/2000/svg">
<path d="M17.689 1.45312H3.973C2.33106 1.45312 1 2.78418 1 4.42613V19.0261C1 20.6681 2.33106 21.9991 3.973 21.9991H17.689C19.3309 21.9991 20.662 20.6681 20.662 19.0261V4.42613C20.662 2.78418 19.3309 1.45312 17.689 1.45312Z" stroke="black" stroke-miterlimit="10"/>
<path d="M4.05078 15.9737C5.45079 16.1197 6.85528 15.7424 7.99377 14.9147C7.48941 14.7285 6.99713 14.511 6.51978 14.2637C6.03381 13.9507 5.67835 13.4715 5.51978 12.9157H6.61279C6.02341 12.7293 5.50634 12.3647 5.13275 11.8722C4.75917 11.3797 4.54745 10.7835 4.52679 10.1657L5.6358 10.4777C5.10413 10.0382 4.74106 9.42816 4.60834 8.75126C4.47562 8.07436 4.58143 7.37239 4.90778 6.76469C5.62551 7.61323 6.50585 8.30957 7.49683 8.81269C8.48078 9.30859 9.55735 9.59367 10.6578 9.6497C10.6404 9.34121 10.6425 9.03194 10.6638 8.7237C10.7083 8.21734 10.8981 7.73461 11.2106 7.33366C11.523 6.9327 11.9447 6.6306 12.4248 6.46369C12.893 6.26693 13.4074 6.20694 13.9083 6.29066C14.4092 6.37438 14.8761 6.59837 15.2548 6.93668C15.331 7.01489 15.429 7.06837 15.536 7.09013C15.643 7.11188 15.7541 7.10093 15.8548 7.05869C16.3058 6.89469 16.7548 6.72568 17.2308 6.54868C17.0351 7.10204 16.6666 7.57779 16.1798 7.90568L16.2128 7.99268L17.5558 7.63569L17.6178 7.68369C17.2388 8.05869 16.8508 8.4247 16.4878 8.8147C16.3642 8.93669 16.2859 9.09718 16.2658 9.26969C16.2727 10.3681 16.0499 11.4558 15.6118 12.4631C15.1736 13.4703 14.5297 14.3749 13.7215 15.1187C12.9133 15.8626 11.9585 16.4293 10.9184 16.7824C9.8783 17.1356 8.77588 17.2675 7.68182 17.1697C6.38927 17.0873 5.13925 16.6756 4.05078 15.9737V15.9737Z" fill="black"/>
</svg>
